<?xml version="1.0" encoding="UTF-8" standalone="no"?>
<!-- Created with Inkscape (http://www.inkscape.org/) -->

<svg
   xmlns:dc="http://purl.org/dc/elements/1.1/"
   xmlns:cc="http://creativecommons.org/ns#"
   xmlns:rdf="http://www.w3.org/1999/02/22-rdf-syntax-ns#"
   xmlns:svg="http://www.w3.org/2000/svg"
   xmlns="http://www.w3.org/2000/svg"
   xmlns:sodipodi="http://sodipodi.sourceforge.net/DTD/sodipodi-0.dtd"
   xmlns:inkscape="http://www.inkscape.org/namespaces/inkscape"
   width="210mm"
   height="297mm"
   viewBox="0 0 210 297"
   version="1.1"
   id="svg7761"
   inkscape:version="0.92.3 (2405546, 2018-03-11)"
   sodipodi:docname="flisol azul.svg">
  <defs
     id="defs7755" />
  <sodipodi:namedview
     id="base"
     pagecolor="#ffffff"
     bordercolor="#666666"
     borderopacity="1.0"
     inkscape:pageopacity="0.0"
     inkscape:pageshadow="2"
     inkscape:zoom="0.41054507"
     inkscape:cx="-85.334548"
     inkscape:cy="654.7097"
     inkscape:document-units="mm"
     inkscape:current-layer="layer1"
     showgrid="false"
     showguides="true"
     inkscape:guide-bbox="true"
     inkscape:window-width="1366"
     inkscape:window-height="705"
     inkscape:window-x="-8"
     inkscape:window-y="-8"
     inkscape:window-maximized="1">
    <sodipodi:guide
       position="-136.07143,151.19048"
       orientation="0,1"
       id="guide8358"
       inkscape:locked="false" />
    <sodipodi:guide
       position="105.83333,-52.916668"
       orientation="1,0"
       id="guide8360"
       inkscape:locked="false" />
  </sodipodi:namedview>
  <metadata
     id="metadata7758">
    <rdf:RDF>
      <cc:Work
         rdf:about="">
        <dc:format>image/svg+xml</dc:format>
        <dc:type
           rdf:resource="http://purl.org/dc/dcmitype/StillImage" />
        <dc:title />
      </cc:Work>
    </rdf:RDF>
  </metadata>
  <g
     inkscape:label="Capa 1"
     inkscape:groupmode="layer"
     id="layer1">
    <rect
       style="opacity:1;fill:#000000;fill-opacity:1;stroke:#000000;stroke-width:1.76800001;stroke-linecap:round;stroke-linejoin:round;stroke-miterlimit:4;stroke-dasharray:none;stroke-dashoffset:0;stroke-opacity:1"
       id="rect8356"
       width="213.17857"
       height="301.625"
       x="-2.2678571"
       y="-1.6011904" />
    <g
       id="g1032">
      <g
         style="stroke:#172087;stroke-opacity:1"
         transform="matrix(0.7821225,0.00447676,-0.00447676,0.7821225,21.561321,-9.0491039)"
         id="g8422">
        <path
           style="fill:none;stroke:#172087;stroke-width:6.19957733;stroke-linecap:round;stroke-linejoin:round;stroke-miterlimit:4;stroke-dasharray:none;stroke-opacity:1"
           d="M 120.59565,110.48823 84.627647,72.804045 58.613923,97.865033 79.169567,119.72551 95.496955,103.98316 84.726056,92.96429 79.026203,98.344955"
           id="path10267-0-4-5-4-4-8-7-0-2-4-5-2-4-5-2-6-8-7-9-6-0-7-9-5-6"
           inkscape:connector-curvature="0"
           sodipodi:nodetypes="ccccccc" />
        <path
           style="fill:none;stroke:#172087;stroke-width:6.19957733;stroke-linecap:round;stroke-linejoin:round;stroke-miterlimit:4;stroke-dasharray:none;stroke-opacity:1"
           d="M 115.00337,134.32634 152.68748,98.358366 127.62646,72.344575 105.76604,92.900288 121.5084,109.22764 132.52723,98.456776 127.14654,92.756857"
           id="path10267-0-6-9-1-9-4-6-0-7-9-6-4-4-0-5-30-1-3-7-6-9-1-6-4-8-2"
           inkscape:connector-curvature="0"
           sodipodi:nodetypes="ccccccc" />
        <path
           style="fill:none;stroke:#172087;stroke-width:6.19957733;stroke-linecap:round;stroke-linejoin:round;stroke-miterlimit:4;stroke-dasharray:none;stroke-opacity:1"
           d="m 70.743779,129.95686 -37.684179,35.96803 25.060988,26.01372 21.860484,-20.55564 -15.742358,-16.32741 -11.018869,10.77093 5.380666,5.69985"
           id="path10267-0-4-5-4-4-8-7-0-2-4-5-2-4-5-76-16-5-3-4-1-4-6-5-0-7-5"
           inkscape:connector-curvature="0"
           sodipodi:nodetypes="ccccccc"
           inkscape:transform-center-x="-14.069136"
           inkscape:transform-center-y="8.6366409" />
        <path
           style="fill:none;stroke:#172087;stroke-width:6.19957733;stroke-linecap:round;stroke-linejoin:round;stroke-miterlimit:4;stroke-dasharray:none;stroke-opacity:1"
           d="M 94.581898,135.54917 58.613921,97.865062 32.600132,122.92604 53.155843,144.7865 69.483199,129.04411 58.712332,118.02527 l -5.699918,5.3807"
           id="path10267-0-6-9-1-9-4-6-0-7-9-6-4-4-0-5-3-5-5-5-4-0-7-8-72-9-8-3"
           inkscape:connector-curvature="0"
           sodipodi:nodetypes="ccccccc"
           inkscape:transform-center-x="-15.883876"
           inkscape:transform-center-y="-3.4557141" />
        <path
           style="fill:none;stroke:#172087;stroke-width:6.19957733;stroke-linecap:round;stroke-linejoin:round;stroke-miterlimit:4;stroke-dasharray:none;stroke-opacity:1"
           d="m 90.21238,179.80873 35.96804,37.68418 26.01372,-25.06099 -20.55564,-21.86049 -16.32745,15.74236 10.77096,11.01887 5.69982,-5.38066"
           id="path10267-0-4-5-4-4-8-7-0-2-4-5-2-4-5-8-5-4-1-4-6-7-3-28-6-3-7"
           inkscape:connector-curvature="0"
           sodipodi:nodetypes="ccccccc" />
        <path
           style="fill:none;stroke:#172087;stroke-width:6.19957733;stroke-linecap:round;stroke-linejoin:round;stroke-miterlimit:4;stroke-dasharray:none;stroke-opacity:1"
           d="m 95.804701,155.97061 -37.684113,35.96797 25.060987,26.01379 21.860455,-20.5557 -15.742394,-16.32735 -11.018834,10.77086 5.380695,5.69992"
           id="path10267-0-6-9-1-9-4-6-0-7-9-6-4-4-0-5-6-5-8-8-1-5-1-4-6-3-1-5"
           inkscape:connector-curvature="0"
           sodipodi:nodetypes="ccccccc" />
        <path
           style="fill:none;stroke:#172087;stroke-width:6.19957733;stroke-linecap:round;stroke-linejoin:round;stroke-miterlimit:4;stroke-dasharray:none;stroke-opacity:1"
           d="m 140.06428,160.34012 37.68418,-35.96803 -25.06098,-26.013731 -21.86049,20.555641 15.74236,16.32743 11.01887,-10.77094 -5.38068,-5.69984"
           id="path10267-0-4-5-4-4-8-7-0-2-4-5-2-4-5-76-1-3-9-9-9-8-5-8-0-3-9-9"
           inkscape:connector-curvature="0"
           sodipodi:nodetypes="ccccccc"
           inkscape:transform-center-x="-14.069136"
           inkscape:transform-center-y="8.6366409" />
        <path
           style="fill:none;stroke:#172087;stroke-width:6.19957733;stroke-linecap:round;stroke-linejoin:round;stroke-miterlimit:4;stroke-dasharray:none;stroke-opacity:1"
           d="m 116.22616,154.7478 35.96798,37.68412 26.01379,-25.06099 -20.5557,-21.86046 -16.32737,15.74239 10.77087,11.01884 5.69993,-5.38069"
           id="path10267-0-6-9-1-9-4-6-0-7-9-6-4-4-0-5-3-8-5-9-5-9-0-8-4-5-9-5-0"
           inkscape:connector-curvature="0"
           sodipodi:nodetypes="ccccccc"
           inkscape:transform-center-x="-15.883876"
           inkscape:transform-center-y="-3.4557141" />
      </g>
      <g
         style="fill:#172087;fill-opacity:1"
         transform="matrix(0.78213531,0,0,0.78213531,21.737936,-9.4068551)"
         id="g8430">
        <g
           id="g5708-82-3-6-70-0-3-8"
           transform="matrix(2.8047596,-0.06028924,0.06028924,2.8047596,-241.98857,-303.97953)"
           style="fill:#172087;fill-opacity:1;stroke:none;stroke-opacity:1">
          <circle
             r="1.1388645"
             transform="rotate(-1.1419102)"
             cy="164.26436"
             cx="84.286331"
             id="path10329-1-8-2-3-9-70-0-1-28-0-0-9-0-2-2-4-8-6-1-0-4-2-9-0-0-2-0"
             style="opacity:1;fill:#172087;fill-opacity:1;stroke:none;stroke-width:4.52228498;stroke-linecap:round;stroke-linejoin:round;stroke-miterlimit:4;stroke-dasharray:none;stroke-dashoffset:0;stroke-opacity:1" />
          <circle
             r="1.1388645"
             transform="rotate(-1.1419102)"
             cy="164.36307"
             cx="89.238533"
             id="path10329-7-7-1-1-9-0-8-7-8-6-2-6-0-6-5-4-4-1-4-4-5-7-1-8-6-1-0-7-9"
             style="opacity:1;fill:#172087;fill-opacity:1;stroke:none;stroke-width:4.52228498;stroke-linecap:round;stroke-linejoin:round;stroke-miterlimit:4;stroke-dasharray:none;stroke-dashoffset:0;stroke-opacity:1" />
        </g>
        <g
           transform="matrix(2.8047596,-0.06028924,0.06028924,2.8047596,-73.936484,-303.97953)"
           id="g5708-8-4-8-5-3-8-2-4"
           style="fill:#172087;fill-opacity:1">
          <circle
             r="1.1388645"
             transform="rotate(-1.1419102)"
             cy="164.26436"
             cx="84.286331"
             id="path10329-1-8-2-3-9-70-0-1-28-0-0-9-0-2-2-4-8-6-1-0-3-8-0-9-3-8-7-7"
             style="opacity:1;fill:#172087;fill-opacity:1;stroke:none;stroke-width:4.52228498;stroke-linecap:round;stroke-linejoin:round;stroke-miterlimit:4;stroke-dasharray:none;stroke-dashoffset:0;stroke-opacity:1" />
          <circle
             r="1.1388645"
             transform="rotate(-1.1419102)"
             cy="164.36307"
             cx="89.238533"
             id="path10329-7-7-1-1-9-0-8-7-8-6-2-6-0-6-5-4-4-1-4-4-5-7-8-6-0-9-6-3-9-9"
             style="opacity:1;fill:#172087;fill-opacity:1;stroke:none;stroke-width:4.52228498;stroke-linecap:round;stroke-linejoin:round;stroke-miterlimit:4;stroke-dasharray:none;stroke-dashoffset:0;stroke-opacity:1" />
        </g>
      </g>
      <g
         style="fill:#172087;fill-opacity:1"
         transform="matrix(0.78213531,0,0,0.78213531,20.249849,-8.5790953)"
         id="g8451">
        <g
           style="fill:#172087;fill-opacity:1"
           id="g8442"
           transform="translate(0.43864957)">
          <circle
             r="3.194979"
             transform="rotate(87.626688)"
             cy="-103.28294"
             cx="62.569668"
             id="path10329-1-8-2-3-9-70-0-1-28-0-0-9-0-2-2-4-8-6-1-0-0-5-0-9-7-8-0-1"
             style="opacity:1;fill:#172087;fill-opacity:1;stroke:none;stroke-width:12.68685246;stroke-linecap:round;stroke-linejoin:round;stroke-miterlimit:4;stroke-dasharray:none;stroke-dashoffset:0;stroke-opacity:1" />
          <circle
             r="3.194979"
             transform="rotate(87.626688)"
             cy="-102.70765"
             cx="76.450249"
             id="path10329-7-7-1-1-9-0-8-7-8-6-2-6-0-6-5-4-4-1-4-4-5-7-4-6-2-0-65-5-5-3"
             style="opacity:1;fill:#172087;fill-opacity:1;stroke:none;stroke-width:12.68685246;stroke-linecap:round;stroke-linejoin:round;stroke-miterlimit:4;stroke-dasharray:none;stroke-dashoffset:0;stroke-opacity:1" />
        </g>
        <g
           style="fill:#172087;fill-opacity:1"
           id="g8436"
           transform="translate(0.43864807)">
          <circle
             r="3.194979"
             transform="rotate(87.626688)"
             cy="-96.32386"
             cx="230.4776"
             id="path10329-1-8-2-3-9-70-0-1-28-0-0-9-0-2-2-4-8-6-1-0-3-5-0-3-3-2-2-9-1"
             style="opacity:1;fill:#172087;fill-opacity:1;stroke:none;stroke-width:12.68685246;stroke-linecap:round;stroke-linejoin:round;stroke-miterlimit:4;stroke-dasharray:none;stroke-dashoffset:0;stroke-opacity:1" />
          <circle
             r="3.194979"
             transform="rotate(87.626688)"
             cy="-95.748573"
             cx="244.35818"
             id="path10329-7-7-1-1-9-0-8-7-8-6-2-6-0-6-5-4-4-1-4-4-5-7-8-7-2-9-9-8-0-8-8"
             style="opacity:1;fill:#172087;fill-opacity:1;stroke:none;stroke-width:12.68685246;stroke-linecap:round;stroke-linejoin:round;stroke-miterlimit:4;stroke-dasharray:none;stroke-dashoffset:0;stroke-opacity:1" />
        </g>
        <circle
           style="opacity:1;fill:#172087;fill-opacity:1;stroke:none;stroke-width:5.16291761;stroke-linecap:round;stroke-linejoin:round;stroke-miterlimit:4;stroke-dasharray:none;stroke-dashoffset:0;stroke-opacity:1"
           id="path5895-0-7-5-5-9-5"
           cx="100.83759"
           cy="151.01907"
           r="15.488755"
           transform="rotate(-2.0689716)" />
      </g>
    </g>
    <g
       id="g11087"
       style="fill:#172087;fill-opacity:1"
       transform="translate(-1.5875)">
      <g
         aria-label="f l i s o l"
         style="font-style:normal;font-variant:normal;font-weight:bold;font-stretch:normal;font-size:39.71359253px;line-height:1.25;font-family:Comfortaa;-inkscape-font-specification:'Comfortaa Bold';letter-spacing:0px;word-spacing:0px;fill:#172087;fill-opacity:1;stroke:none;stroke-width:0.99283981"
         id="text4600-5-33">
        <path
           d="m 37.758372,200.30382 q -2.223961,0 -3.574223,1.46941 -1.350262,1.4694 -1.350262,3.89193 v 1.07227 h 4.050786 q 0.833985,0 1.350262,0.47656 0.516277,0.47656 0.516277,1.27083 0,0.71485 -0.516277,1.19141 -0.516277,0.47656 -1.350262,0.47656 h -4.050786 v 15.48831 q 0,0.91341 -0.555991,1.4694 -0.55599,0.55599 -1.54883,0.55599 -0.794272,0 -1.389976,-0.55599 -0.55599,-0.55599 -0.55599,-1.4694 v -15.48831 h -1.707684 q -0.833986,0 -1.350262,-0.47656 -0.516277,-0.47656 -0.516277,-1.19141 0,-0.79427 0.516277,-1.27083 0.516276,-0.47656 1.350262,-0.47656 H 28.7831 v -0.67514 q 0,-2.81966 1.111981,-4.92448 1.151694,-2.14454 3.177087,-3.29623 2.065107,-1.19141 4.686204,-1.19141 0.873699,0 1.429689,0.51628 0.595704,0.51628 0.595704,1.31055 0,0.79427 -0.595704,1.31055 -0.55599,0.51627 -1.429689,0.51627 z"
           style="font-style:normal;font-variant:normal;font-weight:bold;font-stretch:normal;font-family:Comfortaa;-inkscape-font-specification:'Comfortaa Bold';fill:#172087;fill-opacity:1;stroke-width:0.99283981"
           id="path946"
           inkscape:connector-curvature="0" />
        <path
           d="m 53.808869,198.63585 q 0,-0.8737 0.55599,-1.42969 0.55599,-0.55599 1.429689,-0.55599 0.873699,0 1.42969,0.55599 0.55599,0.55599 0.55599,1.42969 v 21.68362 q 0,1.46941 0.55599,2.42253 0.555991,0.95313 1.42969,0.95313 h 0.992839 q 0.794272,0 1.270835,0.55599 0.516277,0.55599 0.516277,1.42969 0,0.8737 -0.754558,1.42969 -0.754558,0.55599 -1.945966,0.55599 h -0.07943 q -1.707685,0 -3.097661,-0.91341 -1.350262,-0.95313 -2.10482,-2.6211 -0.754558,-1.70769 -0.754558,-3.81251 z"
           style="font-style:normal;font-variant:normal;font-weight:bold;font-stretch:normal;font-family:Comfortaa;-inkscape-font-specification:'Comfortaa Bold';fill:#172087;fill-opacity:1;stroke-width:0.99283981"
           id="path948"
           inkscape:connector-curvature="0" />
        <path
           d="m 78.580223,207.96855 q 0,-0.91342 0.55599,-1.46941 0.595704,-0.55599 1.469403,-0.55599 0.913413,0 1.469403,0.55599 0.555991,0.55599 0.555991,1.46941 v 17.67255 q 0,0.87369 -0.555991,1.4694 -0.55599,0.55599 -1.469403,0.55599 -0.873699,0 -1.469403,-0.55599 -0.55599,-0.59571 -0.55599,-1.4694 z m 2.025393,-10.8021 q 1.072267,0 1.826826,0.79427 0.794271,0.75456 0.794271,1.82683 0,1.07226 -0.794271,1.86654 -0.754559,0.75455 -1.826826,0.75455 -1.072267,0 -1.866539,-0.75455 -0.754558,-0.79428 -0.754558,-1.86654 0,-1.07227 0.754558,-1.82683 0.794272,-0.79427 1.866539,-0.79427 z"
           style="font-style:normal;font-variant:normal;font-weight:bold;font-stretch:normal;font-family:Comfortaa;-inkscape-font-specification:'Comfortaa Bold';fill:#172087;fill-opacity:1;stroke-width:0.99283981"
           id="path950"
           inkscape:connector-curvature="0" />
        <path
           d="m 109.46561,205.7843 q 2.58138,0 4.60678,0.83398 2.0651,0.83399 3.25651,2.30339 0.51628,0.63542 0.51628,1.27084 0,0.67513 -0.67513,1.23112 -0.43685,0.31771 -1.11198,0.31771 -1.03256,0 -1.86654,-0.75456 -0.99284,-0.91341 -2.10482,-1.27084 -1.11198,-0.39713 -2.70053,-0.39713 -1.82682,0 -3.01823,0.63542 -1.15169,0.5957 -1.15169,1.70768 0,0.79427 0.39713,1.35026 0.39714,0.51628 1.50912,0.99284 1.11198,0.43685 3.2168,0.8737 4.32878,0.8737 6.11589,2.42253 1.82683,1.54883 1.82683,4.01107 0,1.82683 -0.99284,3.33595 -0.99284,1.4694 -2.93881,2.3431 -1.90625,0.83398 -4.60678,0.83398 -2.70052,0 -5.08334,-0.83398 -2.38281,-0.83399 -3.73307,-2.18425 -0.51628,-0.51628 -0.51628,-1.23112 0,-0.95313 0.79427,-1.54883 0.75456,-0.55599 1.38998,-0.55599 0.79427,0 1.50911,0.71484 0.75456,0.83399 2.26368,1.46941 1.50912,0.5957 3.2168,0.5957 2.26368,0 3.4948,-0.75456 1.27083,-0.75456 1.27083,-2.02539 0,-1.23112 -1.23112,-2.0254 -1.23112,-0.83398 -4.16993,-1.38997 -7.62501,-1.4694 -7.62501,-6.27475 0,-1.94596 1.1517,-3.29623 1.15169,-1.35026 3.01823,-2.02539 1.86654,-0.67513 3.97136,-0.67513 z"
           style="font-style:normal;font-variant:normal;font-weight:bold;font-stretch:normal;font-family:Comfortaa;-inkscape-font-specification:'Comfortaa Bold';fill:#172087;fill-opacity:1;stroke-width:0.99283981"
           id="path952"
           inkscape:connector-curvature="0" />
        <path
           d="m 144.88765,205.7843 q 3.13738,0 5.59962,1.42969 2.50196,1.38997 3.89193,3.89193 1.42969,2.50196 1.42969,5.71876 0,3.17709 -1.38998,5.67904 -1.38997,2.50196 -3.89193,3.93165 -2.46224,1.38997 -5.63933,1.38997 -3.17708,0 -5.67904,-1.38997 -2.50196,-1.42969 -3.89193,-3.93165 -1.38998,-2.50195 -1.38998,-5.67904 0,-3.2168 1.38998,-5.71876 1.38997,-2.50196 3.89193,-3.89193 2.50196,-1.42969 5.67904,-1.42969 z m 0,3.57422 q -2.02539,0 -3.65365,0.95313 -1.58854,0.95312 -2.50195,2.66081 -0.91342,1.70768 -0.91342,3.85222 0,2.14453 0.91342,3.85222 0.91341,1.66797 2.50195,2.62109 1.62826,0.95313 3.65365,0.95313 2.0254,0 3.61394,-0.95313 1.62826,-0.95312 2.50196,-2.62109 0.91341,-1.70769 0.91341,-3.85222 0,-2.14454 -0.91341,-3.85222 -0.8737,-1.70769 -2.50196,-2.66081 -1.58854,-0.95313 -3.61394,-0.95313 z"
           style="font-style:normal;font-variant:normal;font-weight:bold;font-stretch:normal;font-family:Comfortaa;-inkscape-font-specification:'Comfortaa Bold';fill:#172087;fill-opacity:1;stroke-width:0.99283981"
           id="path954"
           inkscape:connector-curvature="0" />
        <path
           d="m 172.71695,198.63585 q 0,-0.8737 0.55599,-1.42969 0.55599,-0.55599 1.42969,-0.55599 0.8737,0 1.42969,0.55599 0.55599,0.55599 0.55599,1.42969 v 21.68362 q 0,1.46941 0.55599,2.42253 0.55599,0.95313 1.42969,0.95313 h 0.99284 q 0.79427,0 1.27084,0.55599 0.51627,0.55599 0.51627,1.42969 0,0.8737 -0.75456,1.42969 -0.75455,0.55599 -1.94596,0.55599 h -0.0794 q -1.70768,0 -3.09766,-0.91341 -1.35026,-0.95313 -2.10482,-2.6211 -0.75456,-1.70769 -0.75456,-3.81251 z"
           style="font-style:normal;font-variant:normal;font-weight:bold;font-stretch:normal;font-family:Comfortaa;-inkscape-font-specification:'Comfortaa Bold';fill:#172087;fill-opacity:1;stroke-width:0.99283981"
           id="path956"
           inkscape:connector-curvature="0" />
      </g>
      <g
         aria-label="c a b a"
         style="font-style:normal;font-variant:normal;font-weight:normal;font-stretch:normal;font-size:20.7114315px;line-height:1.25;font-family:Comfortaa;-inkscape-font-specification:Comfortaa;letter-spacing:0px;word-spacing:0px;fill:#172087;fill-opacity:1;stroke:none;stroke-width:0.51778573"
         id="text1997">
        <path
           d="m 73.40986,239.54863 q 2.588929,0 4.20442,1.9883 0.165692,0.1864 0.165692,0.43494 0,0.33138 -0.352094,0.57992 -0.186403,0.12426 -0.393518,0.12426 -0.310671,0 -0.600631,-0.31067 -0.621343,-0.68347 -1.366955,-1.01486 -0.745611,-0.35209 -1.656914,-0.35209 -1.139129,0 -2.02972,0.55921 -0.890592,0.53849 -1.387666,1.53264 -0.476363,0.99415 -0.476363,2.23684 0,1.22197 0.517786,2.21612 0.517785,0.97344 1.4498,1.53265 0.932014,0.55921 2.133277,0.55921 1.656915,0 2.671775,-0.8906 0.269248,-0.22782 0.559209,-0.22782 0.248537,0 0.455651,0.16569 0.28996,0.24854 0.28996,0.55921 0,0.26925 -0.207114,0.45565 -1.491223,1.38767 -3.769481,1.38767 -1.615491,0 -2.8996,-0.74562 -1.284109,-0.76632 -2.02972,-2.07114 -0.724901,-1.32553 -0.724901,-2.94102 0,-1.65692 0.704189,-2.96174 0.704189,-1.32553 1.946875,-2.07114 1.242686,-0.74561 2.796043,-0.74561 z"
           style="font-style:normal;font-variant:normal;font-weight:normal;font-stretch:normal;font-family:Comfortaa;-inkscape-font-specification:Comfortaa;fill:#172087;fill-opacity:1;stroke-width:0.51778573"
           id="path959"
           inkscape:connector-curvature="0" />
        <path
           d="m 92.126198,239.54863 q 1.615491,0 2.920312,0.76632 1.325531,0.74561 2.071143,2.07114 0.766323,1.32554 0.766323,2.94103 v 4.86718 q 0,0.33139 -0.227826,0.55921 -0.227826,0.22783 -0.57992,0.22783 -0.352094,0 -0.57992,-0.20712 -0.227826,-0.22782 -0.227826,-0.57992 v -1.24268 q -0.7249,0.99415 -1.843317,1.57407 -1.118418,0.55921 -2.464661,0.55921 -1.574069,0 -2.858177,-0.74562 -1.263398,-0.76632 -2.009009,-2.07114 -0.7249,-1.32553 -0.7249,-2.94102 0,-1.61549 0.745611,-2.94103 0.766323,-1.32553 2.071143,-2.07114 1.325532,-0.76632 2.941024,-0.76632 z m 0,10.08647 q 1.180551,0 2.133277,-0.55921 0.952726,-0.55921 1.491223,-1.53265 0.559209,-0.99415 0.559209,-2.21612 0,-1.22198 -0.559209,-2.19541 -0.538497,-0.99415 -1.491223,-1.55336 -0.952726,-0.57992 -2.133277,-0.57992 -1.180552,0 -2.153989,0.57992 -0.952726,0.55921 -1.511935,1.55336 -0.538497,0.97343 -0.538497,2.19541 0,1.22197 0.538497,2.21612 0.559209,0.97344 1.511935,1.53265 0.973437,0.55921 2.153989,0.55921 z"
           style="font-style:normal;font-variant:normal;font-weight:normal;font-stretch:normal;font-family:Comfortaa;-inkscape-font-specification:Comfortaa;fill:#172087;fill-opacity:1;stroke-width:0.51778573"
           id="path961"
           inkscape:connector-curvature="0" />
        <path
           d="m 107.09442,240.25282 q -0.0207,0.0621 -0.0207,0.1864 v 4.86719 q 0,1.61549 0.74562,2.94102 0.76632,1.32553 2.07114,2.09185 1.32553,0.74562 2.94102,0.74562 1.61549,0 2.92031,-0.74562 1.32554,-0.76632 2.07115,-2.09185 0.76632,-1.32553 0.76632,-2.94102 0,-1.6155 -0.74561,-2.92032 -0.7249,-1.32553 -2.00901,-2.07114 -1.2634,-0.76632 -2.83747,-0.76632 -1.34624,0 -2.46466,0.57992 -1.11841,0.55921 -1.84331,1.55336 v -6.06845 q 0,-0.3521 -0.22783,-0.57992 -0.22783,-0.22783 -0.57992,-0.22783 -0.35209,0 -0.57992,0.22783 -0.20711,0.22782 -0.20711,0.57992 z m 5.73706,9.38228 q -1.18055,0 -2.13328,-0.55921 -0.95272,-0.57992 -1.51193,-1.55336 -0.5385,-0.99415 -0.5385,-2.21612 0,-0.3521 0.0207,-0.51779 0.0207,-0.0414 0.0207,-0.10356 0.20711,-1.61549 1.34624,-2.65106 1.15984,-1.03557 2.79604,-1.03557 1.18055,0 2.13328,0.55921 0.97344,0.55921 1.51193,1.55335 0.55921,0.97344 0.55921,2.19542 0,1.22197 -0.55921,2.21612 -0.53849,0.97344 -1.51193,1.55336 -0.95273,0.55921 -2.13328,0.55921 z"
           style="font-style:normal;font-variant:normal;font-weight:normal;font-stretch:normal;font-family:Comfortaa;-inkscape-font-specification:Comfortaa;fill:#172087;fill-opacity:1;stroke-width:0.51778573"
           id="path963"
           inkscape:connector-curvature="0" />
        <path
           d="m 132.94228,239.54863 q 1.61549,0 2.92031,0.76632 1.32553,0.74561 2.07114,2.07114 0.76633,1.32554 0.76633,2.94103 v 4.86718 q 0,0.33139 -0.22783,0.55921 -0.22782,0.22783 -0.57992,0.22783 -0.35209,0 -0.57992,-0.20712 -0.22782,-0.22782 -0.22782,-0.57992 v -1.24268 q -0.7249,0.99415 -1.84332,1.57407 -1.11842,0.55921 -2.46466,0.55921 -1.57407,0 -2.85818,-0.74562 -1.2634,-0.76632 -2.00901,-2.07114 -0.7249,-1.32553 -0.7249,-2.94102 0,-1.61549 0.74561,-2.94103 0.76633,-1.32553 2.07115,-2.07114 1.32553,-0.76632 2.94102,-0.76632 z m 0,10.08647 q 1.18055,0 2.13328,-0.55921 0.95272,-0.55921 1.49122,-1.53265 0.55921,-0.99415 0.55921,-2.21612 0,-1.22198 -0.55921,-2.19541 -0.5385,-0.99415 -1.49122,-1.55336 -0.95273,-0.57992 -2.13328,-0.57992 -1.18055,0 -2.15399,0.57992 -0.95273,0.55921 -1.51193,1.55336 -0.5385,0.97343 -0.5385,2.19541 0,1.22197 0.5385,2.21612 0.5592,0.97344 1.51193,1.53265 0.97344,0.55921 2.15399,0.55921 z"
           style="font-style:normal;font-variant:normal;font-weight:normal;font-stretch:normal;font-family:Comfortaa;-inkscape-font-specification:Comfortaa;fill:#172087;fill-opacity:1;stroke-width:0.51778573"
           id="path965"
           inkscape:connector-curvature="0" />
      </g>
    </g>
    <g
       id="g11235"
       transform="translate(75.222097,80.764778)">
      <path
         style="opacity:1;fill:#f9b50b;fill-opacity:1;stroke:#f9b50b;stroke-width:0.62660575;stroke-linecap:round;stroke-linejoin:round;stroke-miterlimit:4;stroke-dasharray:none;stroke-dashoffset:0;stroke-opacity:1"
         d="M -96.147216,23.88431 A 14.031495,14.031495 0 0 1 -110.17871,37.915805 14.031495,14.031495 0 0 1 -124.21021,23.88431 14.031495,14.031495 0 0 1 -110.17871,9.8528147 14.031495,14.031495 0 0 1 -96.147216,23.88431 Z"
         id="path11122" />
      <g
         aria-label="f9b50bff"
         style="font-style:normal;font-variant:normal;font-weight:normal;font-stretch:normal;font-size:10.58333302px;line-height:1.25;font-family:Comfortaa;-inkscape-font-specification:Comfortaa;letter-spacing:0px;word-spacing:0px;fill:#000000;fill-opacity:1;stroke:none;stroke-width:0.26458332"
         id="text11192">
        <path
           d="m -188.41592,20.476477 q -0.6985,0 -1.05834,0.465666 -0.34925,0.465667 -0.34925,1.23825 v 0.243417 h 1.27 q 0.16934,0 0.26459,0.105833 0.10583,0.09525 0.10583,0.254 0,0.148167 -0.10583,0.254 -0.0953,0.09525 -0.26459,0.09525 h -1.27 v 4.455583 q 0,0.1905 -0.11641,0.306917 -0.10584,0.105833 -0.30692,0.105833 -0.16933,0 -0.28575,-0.105833 -0.10583,-0.116417 -0.10583,-0.306917 v -4.455583 h -0.67734 q -0.16933,0 -0.27516,-0.09525 -0.0952,-0.105833 -0.0952,-0.254 0,-0.15875 0.0952,-0.254 0.10583,-0.105833 0.27516,-0.105833 h 0.67734 v -0.201083 q 0,-1.132417 0.58208,-1.80975 0.58208,-0.677334 1.64042,-0.677334 0.17991,0 0.29633,0.105834 0.11642,0.105833 0.11642,0.264583 0,0.15875 -0.11642,0.264583 -0.11642,0.105834 -0.29633,0.105834 z"
           style="font-style:normal;font-variant:normal;font-weight:normal;font-stretch:normal;font-family:Comfortaa;-inkscape-font-specification:Comfortaa;stroke-width:0.26458332"
           id="path3283" />
        <path
           d="m -185.10086,24.699227 q -0.6985,0 -1.27,-0.3175 -0.56092,-0.328084 -0.889,-0.889 -0.3175,-0.5715 -0.3175,-1.280584 0,-0.709083 0.3175,-1.27 0.32808,-0.5715 0.889,-0.889 0.56092,-0.328083 1.27,-0.328083 0.70908,0 1.27,0.328083 0.5715,0.3175 0.889,0.889 0.32808,0.560917 0.32808,1.27 0,0.687917 -0.3175,1.27 l 0.0106,-0.01058 -2.61409,4.296833 q -0.14816,0.22225 -0.37041,0.22225 -0.17992,0 -0.30692,-0.116417 -0.11642,-0.127 -0.11642,-0.28575 0,-0.105833 0.0635,-0.22225 l 1.66159,-2.709333 q -0.21167,0.04233 -0.49742,0.04233 z m 0.0106,-4.212167 q -0.47625,0 -0.86783,0.22225 -0.381,0.22225 -0.60325,0.624417 -0.22225,0.391583 -0.22225,0.878416 0,0.486834 0.22225,0.889 0.22225,0.391584 0.60325,0.624417 0.39158,0.22225 0.86783,0.22225 0.47625,0 0.85725,-0.22225 0.39159,-0.232833 0.61384,-0.624417 0.22225,-0.402166 0.22225,-0.889 0,-0.486833 -0.22225,-0.878416 -0.22225,-0.402167 -0.61384,-0.624417 -0.381,-0.22225 -0.85725,-0.22225 z"
           style="font-style:normal;font-variant:normal;font-weight:normal;font-stretch:normal;font-family:Comfortaa;-inkscape-font-specification:Comfortaa;stroke-width:0.26458332"
           id="path3285" />
        <path
           d="m -180.97204,22.51906 q -0.0106,0.03175 -0.0106,0.09525 v 2.487083 q 0,0.8255 0.381,1.502833 0.39158,0.677334 1.05833,1.068917 0.67734,0.381 1.50284,0.381 0.8255,0 1.49225,-0.381 0.67733,-0.391583 1.05833,-1.068917 0.39158,-0.677333 0.39158,-1.502833 0,-0.8255 -0.381,-1.49225 -0.37041,-0.677333 -1.02658,-1.058333 -0.64558,-0.391583 -1.44992,-0.391583 -0.68791,0 -1.25941,0.296333 -0.5715,0.28575 -0.94192,0.79375 v -3.100917 q 0,-0.179916 -0.11642,-0.296333 -0.11641,-0.116417 -0.29633,-0.116417 -0.17992,0 -0.29633,0.116417 -0.10584,0.116417 -0.10584,0.296333 z m 2.93159,4.79425 q -0.60325,0 -1.09009,-0.28575 -0.48683,-0.296334 -0.77258,-0.79375 -0.27517,-0.508 -0.27517,-1.132417 0,-0.179916 0.0106,-0.264583 0.0106,-0.02117 0.0106,-0.05292 0.10583,-0.8255 0.68792,-1.354666 0.59266,-0.529167 1.42875,-0.529167 0.60325,0 1.09008,0.28575 0.49742,0.28575 0.77258,0.79375 0.28575,0.497417 0.28575,1.121833 0,0.624417 -0.28575,1.132417 -0.27516,0.497416 -0.77258,0.79375 -0.48683,0.28575 -1.09008,0.28575 z"
           style="font-style:normal;font-variant:normal;font-weight:normal;font-stretch:normal;font-family:Comfortaa;-inkscape-font-specification:Comfortaa;stroke-width:0.26458332"
           id="path3287" />
        <path
           d="m -171.08687,22.624893 q 0.75141,0 1.36525,0.359834 0.62441,0.34925 0.97366,0.963083 0.34925,0.613833 0.34925,1.36525 0,0.751416 -0.34925,1.375833 -0.34925,0.613833 -0.97366,0.963083 -0.61384,0.34925 -1.36525,0.34925 -0.75142,0 -1.36525,-0.34925 -0.61384,-0.34925 -0.96309,-0.963083 -0.34925,-0.624417 -0.34925,-1.375833 0,-0.179917 0.11642,-0.296333 0.11642,-0.116417 0.28575,-0.116417 0.17992,0 0.29633,0.127 0.127,0.116417 0.127,0.28575 0,0.518583 0.24342,0.9525 0.24342,0.423333 0.66675,0.66675 0.42333,0.243416 0.94192,0.243416 0.51858,0 0.94191,-0.243416 0.43392,-0.243417 0.67734,-0.66675 0.24341,-0.433917 0.24341,-0.9525 0,-0.518583 -0.24341,-0.941917 -0.24342,-0.433916 -0.67734,-0.677333 -0.42333,-0.243417 -0.94191,-0.243417 h -1.85209 q -0.16933,0 -0.29633,-0.116416 -0.11642,-0.127 -0.11642,-0.296334 V 20.13781 q 0,-0.179917 0.11642,-0.296333 0.127,-0.116417 0.29633,-0.116417 h 3.71475 q 0.16934,0 0.28575,0.127 0.127,0.116417 0.127,0.28575 0,0.169333 -0.127,0.296333 -0.11641,0.116417 -0.28575,0.116417 h -3.31258 v 2.074333 z"
           style="font-style:normal;font-variant:normal;font-weight:normal;font-stretch:normal;font-family:Comfortaa;-inkscape-font-specification:Comfortaa;stroke-width:0.26458332"
           id="path3289" />
        <path
           d="m -164.80087,19.714477 q 0.79375,0 1.35467,0.508 0.56091,0.497416 0.84666,1.42875 0.29634,0.931333 0.29634,2.201333 0,1.947333 -0.65617,3.048 -0.65617,1.100666 -1.8415,1.100666 -0.78317,0 -1.34408,-0.497416 -0.56092,-0.497417 -0.85725,-1.42875 -0.28575,-0.931333 -0.28575,-2.2225 0,-1.280583 0.28575,-2.211917 0.29633,-0.931333 0.85725,-1.42875 0.56091,-0.497416 1.34408,-0.497416 z m 0,0.8255 q -0.81492,0 -1.23825,0.910166 -0.42333,0.910167 -0.42333,2.402417 0,1.513417 0.42333,2.423583 0.42333,0.899583 1.23825,0.899583 0.8255,0 1.24883,-0.910166 0.42334,-0.910167 0.42334,-2.413 0,-1.49225 -0.43392,-2.402417 -0.42333,-0.910166 -1.23825,-0.910166 z"
           style="font-style:normal;font-variant:normal;font-weight:normal;font-stretch:normal;font-family:Comfortaa;-inkscape-font-specification:Comfortaa;stroke-width:0.26458332"
           id="path3291" />
        <path
           d="m -160.81823,22.51906 q -0.0106,0.03175 -0.0106,0.09525 v 2.487083 q 0,0.8255 0.381,1.502833 0.39158,0.677334 1.05833,1.068917 0.67734,0.381 1.50284,0.381 0.8255,0 1.49225,-0.381 0.67733,-0.391583 1.05833,-1.068917 0.39158,-0.677333 0.39158,-1.502833 0,-0.8255 -0.381,-1.49225 -0.37041,-0.677333 -1.02658,-1.058333 -0.64558,-0.391583 -1.44992,-0.391583 -0.68791,0 -1.25941,0.296333 -0.5715,0.28575 -0.94192,0.79375 v -3.100917 q 0,-0.179916 -0.11642,-0.296333 -0.11641,-0.116417 -0.29633,-0.116417 -0.17992,0 -0.29633,0.116417 -0.10584,0.116417 -0.10584,0.296333 z m 2.93159,4.79425 q -0.60325,0 -1.09009,-0.28575 -0.48683,-0.296334 -0.77258,-0.79375 -0.27517,-0.508 -0.27517,-1.132417 0,-0.179916 0.0106,-0.264583 0.0106,-0.02117 0.0106,-0.05292 0.10583,-0.8255 0.68792,-1.354666 0.59266,-0.529167 1.42875,-0.529167 0.60325,0 1.09008,0.28575 0.49742,0.28575 0.77258,0.79375 0.28575,0.497417 0.28575,1.121833 0,0.624417 -0.28575,1.132417 -0.27516,0.497416 -0.77258,0.79375 -0.48683,0.28575 -1.09008,0.28575 z"
           style="font-style:normal;font-variant:normal;font-weight:normal;font-stretch:normal;font-family:Comfortaa;-inkscape-font-specification:Comfortaa;stroke-width:0.26458332"
           id="path3293" />
        <path
           d="m -150.79548,20.476477 q -0.6985,0 -1.05833,0.465666 -0.34925,0.465667 -0.34925,1.23825 v 0.243417 h 1.26999 q 0.16934,0 0.26459,0.105833 0.10583,0.09525 0.10583,0.254 0,0.148167 -0.10583,0.254 -0.0953,0.09525 -0.26459,0.09525 h -1.26999 v 4.455583 q 0,0.1905 -0.11642,0.306917 -0.10583,0.105833 -0.30692,0.105833 -0.16933,0 -0.28575,-0.105833 -0.10583,-0.116417 -0.10583,-0.306917 v -4.455583 h -0.67733 q -0.16934,0 -0.27517,-0.09525 -0.0952,-0.105833 -0.0952,-0.254 0,-0.15875 0.0952,-0.254 0.10583,-0.105833 0.27517,-0.105833 h 0.67733 v -0.201083 q 0,-1.132417 0.58208,-1.80975 0.58209,-0.677334 1.64042,-0.677334 0.17991,0 0.29633,0.105834 0.11642,0.105833 0.11642,0.264583 0,0.15875 -0.11642,0.264583 -0.11642,0.105834 -0.29633,0.105834 z m 3.8735,0 q -0.6985,0 -1.05834,0.465666 -0.34925,0.465667 -0.34925,1.23825 v 0.243417 h 1.27 q 0.16934,0 0.26459,0.105833 0.10583,0.09525 0.10583,0.254 0,0.148167 -0.10583,0.254 -0.0952,0.09525 -0.26459,0.09525 h -1.27 v 4.455583 q 0,0.1905 -0.11641,0.306917 -0.10584,0.105833 -0.30692,0.105833 -0.16933,0 -0.28575,-0.105833 -0.10583,-0.116417 -0.10583,-0.306917 v -4.455583 h -0.67734 q -0.16933,0 -0.27516,-0.09525 -0.0952,-0.105833 -0.0952,-0.254 0,-0.15875 0.0952,-0.254 0.10583,-0.105833 0.27516,-0.105833 h 0.67734 v -0.201083 q 0,-1.132417 0.58208,-1.80975 0.58208,-0.677334 1.64042,-0.677334 0.17991,0 0.29633,0.105834 0.11642,0.105833 0.11642,0.264583 0,0.15875 -0.11642,0.264583 -0.11642,0.105834 -0.29633,0.105834 z"
           style="font-style:normal;font-variant:normal;font-weight:normal;font-stretch:normal;font-family:Comfortaa;-inkscape-font-specification:Comfortaa;stroke-width:0.26458332"
           id="path3295" />
      </g>
      <path
         style="opacity:1;fill:#fe255c;fill-opacity:1;stroke:#fe255c;stroke-width:0.62660575;stroke-linecap:round;stroke-linejoin:round;stroke-miterlimit:4;stroke-dasharray:none;stroke-dashoffset:0;stroke-opacity:1"
         d="m -96.147215,86.620827 a 14.031496,14.031496 0 0 1 -14.031495,14.031493 14.031496,14.031496 0 0 1 -14.0315,-14.031493 14.031496,14.031496 0 0 1 14.0315,-14.031496 14.031496,14.031496 0 0 1 14.031495,14.031496 z"
         id="path11122-0" />
      <g
         aria-label="fe255cff"
         style="font-style:normal;font-variant:normal;font-weight:normal;font-stretch:normal;font-size:10.58333302px;line-height:1.25;font-family:Comfortaa;-inkscape-font-specification:Comfortaa;letter-spacing:0px;word-spacing:0px;fill:#000000;fill-opacity:1;stroke:none;stroke-width:0.26458332"
         id="text11196">
        <path
           d="m -187.53741,83.207703 q -0.6985,0 -1.05834,0.465666 -0.34925,0.465667 -0.34925,1.23825 v 0.243417 h 1.27 q 0.16934,0 0.26459,0.105833 0.10583,0.09525 0.10583,0.254 0,0.148167 -0.10583,0.254 -0.0952,0.09525 -0.26459,0.09525 h -1.27 v 4.455583 q 0,0.1905 -0.11641,0.306917 -0.10584,0.105833 -0.30692,0.105833 -0.16933,0 -0.28575,-0.105833 -0.10583,-0.116417 -0.10583,-0.306917 v -4.455583 h -0.67734 q -0.16933,0 -0.27516,-0.09525 -0.0952,-0.105833 -0.0952,-0.254 0,-0.15875 0.0952,-0.254 0.10583,-0.105833 0.27516,-0.105833 h 0.67734 v -0.201083 q 0,-1.132417 0.58208,-1.80975 0.58208,-0.677334 1.64042,-0.677334 0.17991,0 0.29633,0.105834 0.11642,0.105833 0.11642,0.264583 0,0.15875 -0.11642,0.264583 -0.11642,0.105834 -0.29633,0.105834 z"
           style="font-style:normal;font-variant:normal;font-weight:normal;font-stretch:normal;font-family:Comfortaa;-inkscape-font-specification:Comfortaa;stroke-width:0.26458332"
           id="path3299" />
        <path
           d="m -183.96339,84.890453 q 0.78317,0 1.38642,0.370416 0.60325,0.359834 0.93133,1.005417 0.33867,0.645583 0.33867,1.471083 0,0.169333 -0.10584,0.275167 -0.10583,0.09525 -0.27516,0.09525 h -4.27567 q 0.0847,0.867833 0.67733,1.407583 0.59267,0.53975 1.48167,0.53975 0.381,0 0.762,-0.127 0.39158,-0.137583 0.62442,-0.338667 0.13758,-0.105833 0.28575,-0.105833 0.11641,0 0.23283,0.08467 0.13758,0.127 0.13758,0.28575 0,0.137583 -0.11641,0.243416 -0.34925,0.296334 -0.889,0.497417 -0.53975,0.1905 -1.03717,0.1905 -0.84667,0 -1.51342,-0.370417 -0.66675,-0.381 -1.04775,-1.04775 -0.37041,-0.677333 -0.37041,-1.524 0,-0.857249 0.34925,-1.523999 0.35983,-0.677334 0.98425,-1.04775 0.635,-0.381 1.43933,-0.381 z m 0,0.73025 q -0.80433,0 -1.3335,0.497416 -0.52917,0.497417 -0.64558,1.312333 h 3.8735 q -0.0847,-0.814916 -0.59267,-1.312333 -0.508,-0.497416 -1.30175,-0.497416 z"
           style="font-style:normal;font-variant:normal;font-weight:normal;font-stretch:normal;font-family:Comfortaa;-inkscape-font-specification:Comfortaa;stroke-width:0.26458332"
           id="path3301" />
        <path
           d="m -175.6525,89.906952 q 0.16934,0 0.28575,0.127 0.127,0.116417 0.127,0.28575 0,0.169334 -0.11641,0.296334 -0.11642,0.116416 -0.29634,0.116416 h -4.07458 q -0.16933,0 -0.29633,-0.116416 -0.11642,-0.127 -0.11642,-0.296334 0,-0.169333 0.11642,-0.28575 l 3.20675,-3.788833 q 0.26458,-0.28575 0.42333,-0.635 0.15875,-0.359833 0.15875,-0.66675 0,-0.740833 -0.4445,-1.217083 -0.43392,-0.47625 -1.11125,-0.47625 -0.4445,0 -0.80433,0.232833 -0.35984,0.22225 -0.5715,0.613834 -0.21167,0.381 -0.21167,0.846666 0,0.169334 -0.127,0.28575 -0.11642,0.116417 -0.28575,0.116417 -0.16933,0 -0.29633,-0.116417 -0.11642,-0.116416 -0.11642,-0.28575 0,-0.6985 0.3175,-1.27 0.3175,-0.5715 0.86783,-0.889 0.55034,-0.328083 1.22767,-0.328083 0.68792,0 1.21708,0.3175 0.53975,0.3175 0.83609,0.889 0.30691,0.560917 0.30691,1.280583 0,0.85725 -0.8255,1.820334 l -2.70933,3.143249 z"
           style="font-style:normal;font-variant:normal;font-weight:normal;font-stretch:normal;font-family:Comfortaa;-inkscape-font-specification:Comfortaa;stroke-width:0.26458332"
           id="path3303" />
        <path
           d="m -171.38659,85.356119 q 0.75142,0 1.36525,0.359834 0.62442,0.34925 0.97367,0.963083 0.34925,0.613833 0.34925,1.36525 0,0.751416 -0.34925,1.375833 -0.34925,0.613833 -0.97367,0.963083 -0.61383,0.34925 -1.36525,0.34925 -0.75141,0 -1.36525,-0.34925 -0.61383,-0.34925 -0.96308,-0.963083 -0.34925,-0.624417 -0.34925,-1.375833 0,-0.179917 0.11642,-0.296334 0.11641,-0.116416 0.28575,-0.116416 0.17991,0 0.29633,0.127 0.127,0.116416 0.127,0.28575 0,0.518583 0.24342,0.9525 0.24341,0.423333 0.66675,0.66675 0.42333,0.243416 0.94191,0.243416 0.51859,0 0.94192,-0.243416 0.43392,-0.243417 0.67733,-0.66675 0.24342,-0.433917 0.24342,-0.9525 0,-0.518584 -0.24342,-0.941917 -0.24341,-0.433916 -0.67733,-0.677333 -0.42333,-0.243417 -0.94192,-0.243417 h -1.85208 q -0.16933,0 -0.29633,-0.116416 -0.11642,-0.127 -0.11642,-0.296334 v -2.899833 q 0,-0.179917 0.11642,-0.296333 0.127,-0.116417 0.29633,-0.116417 h 3.71475 q 0.16933,0 0.28575,0.127 0.127,0.116417 0.127,0.28575 0,0.169333 -0.127,0.296333 -0.11642,0.116417 -0.28575,0.116417 h -3.31258 v 2.074333 z"
           style="font-style:normal;font-variant:normal;font-weight:normal;font-stretch:normal;font-family:Comfortaa;-inkscape-font-specification:Comfortaa;stroke-width:0.26458332"
           id="path3305" />
        <path
           d="m -164.75133,85.356119 q 0.75141,0 1.36525,0.359834 0.62441,0.34925 0.97366,0.963083 0.34925,0.613833 0.34925,1.36525 0,0.751416 -0.34925,1.375833 -0.34925,0.613833 -0.97366,0.963083 -0.61384,0.34925 -1.36525,0.34925 -0.75142,0 -1.36525,-0.34925 -0.61384,-0.34925 -0.96309,-0.963083 -0.34925,-0.624417 -0.34925,-1.375833 0,-0.179917 0.11642,-0.296334 0.11642,-0.116416 0.28575,-0.116416 0.17992,0 0.29633,0.127 0.127,0.116416 0.127,0.28575 0,0.518583 0.24342,0.9525 0.24342,0.423333 0.66675,0.66675 0.42333,0.243416 0.94192,0.243416 0.51858,0 0.94191,-0.243416 0.43392,-0.243417 0.67734,-0.66675 0.24341,-0.433917 0.24341,-0.9525 0,-0.518584 -0.24341,-0.941917 -0.24342,-0.433916 -0.67734,-0.677333 -0.42333,-0.243417 -0.94191,-0.243417 h -1.85209 q -0.16933,0 -0.29633,-0.116416 -0.11642,-0.127 -0.11642,-0.296334 v -2.899833 q 0,-0.179917 0.11642,-0.296333 0.127,-0.116417 0.29633,-0.116417 h 3.71475 q 0.16934,0 0.28575,0.127 0.127,0.116417 0.127,0.28575 0,0.169333 -0.127,0.296333 -0.11641,0.116417 -0.28575,0.116417 h -3.31258 v 2.074333 z"
           style="font-style:normal;font-variant:normal;font-weight:normal;font-stretch:normal;font-family:Comfortaa;-inkscape-font-specification:Comfortaa;stroke-width:0.26458332"
           id="path3307" />
        <path
           d="m -158.05258,84.890453 q 1.32292,0 2.14842,1.016 0.0847,0.09525 0.0847,0.22225 0,0.169333 -0.17991,0.296333 -0.0952,0.0635 -0.20109,0.0635 -0.15875,0 -0.30691,-0.15875 -0.3175,-0.34925 -0.6985,-0.518583 -0.381,-0.179917 -0.84667,-0.179917 -0.58208,0 -1.03717,0.28575 -0.45508,0.275167 -0.70908,0.783167 -0.24342,0.507999 -0.24342,1.142999 0,0.624417 0.26459,1.132417 0.26458,0.497417 0.74083,0.783167 0.47625,0.28575 1.09008,0.28575 0.84667,0 1.36525,-0.455084 0.13759,-0.116416 0.28575,-0.116416 0.127,0 0.23284,0.08467 0.14816,0.127 0.14816,0.28575 0,0.137584 -0.10583,0.232834 -0.762,0.709083 -1.92617,0.709083 -0.8255,0 -1.48166,-0.381 -0.65617,-0.391583 -1.03717,-1.058333 -0.37042,-0.677334 -0.37042,-1.502834 0,-0.846666 0.35984,-1.513416 0.35983,-0.677333 0.99483,-1.058333 0.635,-0.381 1.42875,-0.381 z"
           style="font-style:normal;font-variant:normal;font-weight:normal;font-stretch:normal;font-family:Comfortaa;-inkscape-font-specification:Comfortaa;stroke-width:0.26458332"
           id="path3309" />
        <path
           d="m -151.67397,83.207703 q -0.6985,0 -1.05834,0.465666 -0.34925,0.465667 -0.34925,1.23825 v 0.243417 h 1.27 q 0.16934,0 0.26459,0.105833 0.10583,0.09525 0.10583,0.254 0,0.148167 -0.10583,0.254 -0.0953,0.09525 -0.26459,0.09525 h -1.27 v 4.455583 q 0,0.1905 -0.11641,0.306917 -0.10584,0.105833 -0.30692,0.105833 -0.16933,0 -0.28575,-0.105833 -0.10583,-0.116417 -0.10583,-0.306917 v -4.455583 h -0.67734 q -0.16933,0 -0.27516,-0.09525 -0.0952,-0.105833 -0.0952,-0.254 0,-0.15875 0.0952,-0.254 0.10583,-0.105833 0.27516,-0.105833 h 0.67734 v -0.201083 q 0,-1.132417 0.58208,-1.80975 0.58208,-0.677334 1.64042,-0.677334 0.17991,0 0.29633,0.105834 0.11642,0.105833 0.11642,0.264583 0,0.15875 -0.11642,0.264583 -0.11642,0.105834 -0.29633,0.105834 z m 3.8735,0 q -0.6985,0 -1.05834,0.465666 -0.34925,0.465667 -0.34925,1.23825 v 0.243417 h 1.27 q 0.16934,0 0.26459,0.105833 0.10583,0.09525 0.10583,0.254 0,0.148167 -0.10583,0.254 -0.0952,0.09525 -0.26459,0.09525 h -1.27 v 4.455583 q 0,0.1905 -0.11641,0.306917 -0.10584,0.105833 -0.30692,0.105833 -0.16933,0 -0.28575,-0.105833 -0.10583,-0.116417 -0.10583,-0.306917 v -4.455583 h -0.67734 q -0.16933,0 -0.27516,-0.09525 -0.0952,-0.105833 -0.0952,-0.254 0,-0.15875 0.0952,-0.254 0.10583,-0.105833 0.27516,-0.105833 h 0.67734 v -0.201083 q 0,-1.132417 0.58208,-1.80975 0.58208,-0.677334 1.64042,-0.677334 0.17991,0 0.29633,0.105834 0.11642,0.105833 0.11642,0.264583 0,0.15875 -0.11642,0.264583 -0.11642,0.105834 -0.29633,0.105834 z"
           style="font-style:normal;font-variant:normal;font-weight:normal;font-stretch:normal;font-family:Comfortaa;-inkscape-font-specification:Comfortaa;stroke-width:0.26458332"
           id="path3311" />
      </g>
      <path
         style="opacity:1;fill:#172087;fill-opacity:1;stroke:#172087;stroke-width:0.62660575;stroke-linecap:round;stroke-linejoin:round;stroke-miterlimit:4;stroke-dasharray:none;stroke-dashoffset:0;stroke-opacity:1"
         d="m -96.147223,149.35732 a 14.031496,14.031496 0 0 1 -14.031497,14.03149 14.031496,14.031496 0 0 1 -14.03149,-14.03149 14.031496,14.031496 0 0 1 14.03149,-14.0315 14.031496,14.031496 0 0 1 14.031497,14.0315 z"
         id="path11122-5" />
      <g
         aria-label="172087ff"
         style="font-style:normal;font-variant:normal;font-weight:normal;font-stretch:normal;font-size:10.58333302px;line-height:1.25;font-family:Comfortaa;-inkscape-font-specification:Comfortaa;letter-spacing:0px;word-spacing:0px;fill:#000000;fill-opacity:1;stroke:none;stroke-width:0.26458332"
         id="text11200">
        <path
           d="m -189.19388,146.55802 q -0.10583,0.0529 -0.21167,0.0529 -0.17991,0 -0.29633,-0.10583 -0.11642,-0.11642 -0.11642,-0.29634 0,-0.30691 0.26459,-0.39158 l 1.62983,-0.56092 q 0.15875,-0.0529 0.21167,-0.0529 0.16933,0 0.28575,0.11641 0.11641,0.11642 0.11641,0.29634 v 7.45066 q 0,0.16934 -0.11641,0.29634 -0.11642,0.11641 -0.29634,0.11641 -0.16933,0 -0.29633,-0.11641 -0.11642,-0.127 -0.11642,-0.29634 v -6.87916 z"
           style="font-style:normal;font-variant:normal;font-weight:normal;font-stretch:normal;font-family:Comfortaa;-inkscape-font-specification:Comfortaa;stroke-width:0.26458332"
           id="path3315" />
        <path
           d="m -185.33196,146.02886 q -0.17991,0 -0.30691,-0.11642 -0.11642,-0.127 -0.11642,-0.29633 0,-0.16934 0.11642,-0.28575 0.127,-0.127 0.30691,-0.127 h 4.30742 q 0.16933,0 0.28575,0.127 0.11642,0.11641 0.11642,0.28575 0,0.0741 -0.0635,0.22225 l -3.46075,7.40833 q -0.0529,0.10583 -0.15875,0.16933 -0.0952,0.0635 -0.21167,0.0635 -0.16933,0 -0.29633,-0.11641 -0.11642,-0.127 -0.11642,-0.29634 0,-0.0952 0.0847,-0.26458 l 3.15383,-6.77333 z"
           style="font-style:normal;font-variant:normal;font-weight:normal;font-stretch:normal;font-family:Comfortaa;-inkscape-font-specification:Comfortaa;stroke-width:0.26458332"
           id="path3317" />
        <path
           d="m -174.98824,152.65402 q 0.16934,0 0.28575,0.127 0.127,0.11642 0.127,0.28575 0,0.16934 -0.11641,0.29634 -0.11642,0.11641 -0.29634,0.11641 h -4.07458 q -0.16933,0 -0.29633,-0.11641 -0.11642,-0.127 -0.11642,-0.29634 0,-0.16933 0.11642,-0.28575 l 3.20675,-3.78883 q 0.26458,-0.28575 0.42333,-0.635 0.15875,-0.35983 0.15875,-0.66675 0,-0.74083 -0.4445,-1.21708 -0.43392,-0.47625 -1.11125,-0.47625 -0.4445,0 -0.80433,0.23283 -0.35984,0.22225 -0.5715,0.61383 -0.21167,0.381 -0.21167,0.84667 0,0.16933 -0.127,0.28575 -0.11642,0.11642 -0.28575,0.11642 -0.16933,0 -0.29633,-0.11642 -0.11642,-0.11642 -0.11642,-0.28575 0,-0.6985 0.3175,-1.27 0.3175,-0.5715 0.86783,-0.889 0.55034,-0.32808 1.22767,-0.32808 0.68792,0 1.21708,0.3175 0.53975,0.3175 0.83609,0.889 0.30691,0.56091 0.30691,1.28058 0,0.85725 -0.8255,1.82033 l -2.70933,3.14325 z"
           style="font-style:normal;font-variant:normal;font-weight:normal;font-stretch:normal;font-family:Comfortaa;-inkscape-font-specification:Comfortaa;stroke-width:0.26458332"
           id="path3319" />
        <path
           d="m -171.07158,145.19277 q 0.79375,0 1.35467,0.508 0.56092,0.49742 0.84667,1.42875 0.29633,0.93134 0.29633,2.20134 0,1.94733 -0.65617,3.048 -0.65616,1.10066 -1.8415,1.10066 -0.78316,0 -1.34408,-0.49741 -0.56092,-0.49742 -0.85725,-1.42875 -0.28575,-0.93134 -0.28575,-2.2225 0,-1.28059 0.28575,-2.21192 0.29633,-0.93133 0.85725,-1.42875 0.56092,-0.49742 1.34408,-0.49742 z m 0,0.8255 q -0.81491,0 -1.23825,0.91017 -0.42333,0.91017 -0.42333,2.40242 0,1.51341 0.42333,2.42358 0.42334,0.89958 1.23825,0.89958 0.8255,0 1.24884,-0.91016 0.42333,-0.91017 0.42333,-2.413 0,-1.49225 -0.43392,-2.40242 -0.42333,-0.91017 -1.23825,-0.91017 z"
           style="font-style:normal;font-variant:normal;font-weight:normal;font-stretch:normal;font-family:Comfortaa;-inkscape-font-specification:Comfortaa;stroke-width:0.26458332"
           id="path3321" />
        <path
           d="m -163.70227,148.84402 q 0.58209,0.30692 0.92075,0.86784 0.33867,0.55033 0.33867,1.24883 0,0.71967 -0.32808,1.30175 -0.3175,0.58208 -0.889,0.92075 -0.56092,0.33867 -1.24884,0.33867 -0.6985,0 -1.27,-0.32809 -0.56091,-0.33866 -0.889,-0.91016 -0.3175,-0.58209 -0.3175,-1.29117 0,-0.70908 0.33867,-1.27 0.34925,-0.5715 0.93133,-0.87842 -0.39158,-0.27516 -0.61383,-0.6985 -0.22225,-0.43391 -0.22225,-0.9525 0,-0.56091 0.26458,-1.016 0.27517,-0.46566 0.74084,-0.71966 0.47625,-0.26459 1.05833,-0.26459 0.5715,0 1.02658,0.26459 0.46567,0.254 0.71967,0.70908 0.26458,0.4445 0.26458,1.00542 0,0.51858 -0.22225,0.96308 -0.22225,0.43392 -0.60325,0.70908 z m -2.46591,-1.64041 q 0,0.55033 0.35983,0.93133 0.35983,0.37042 0.89958,0.37042 0.53975,0 0.889,-0.381 0.35984,-0.39159 0.35984,-0.96309 0,-0.51858 -0.35984,-0.86783 -0.35983,-0.34925 -0.889,-0.34925 -0.53975,0 -0.89958,0.35983 -0.35983,0.35984 -0.35983,0.89959 z m 2.89983,3.76766 q 0,-0.47625 -0.22225,-0.85725 -0.21167,-0.381 -0.59267,-0.60325 -0.37041,-0.22225 -0.8255,-0.22225 -0.46566,0 -0.84666,0.23284 -0.381,0.22225 -0.59267,0.61383 -0.21167,0.39158 -0.21167,0.87842 0,0.48683 0.21167,0.89958 0.22225,0.40217 0.59267,0.635 0.381,0.23283 0.84666,0.23283 0.46567,0 0.83609,-0.23283 0.381,-0.24342 0.59266,-0.65617 0.21167,-0.42333 0.21167,-0.92075 z"
           style="font-style:normal;font-variant:normal;font-weight:normal;font-stretch:normal;font-family:Comfortaa;-inkscape-font-specification:Comfortaa;stroke-width:0.26458332"
           id="path3323" />
        <path
           d="m -161.27141,146.02886 q -0.17992,0 -0.30692,-0.11642 -0.11641,-0.127 -0.11641,-0.29633 0,-0.16934 0.11641,-0.28575 0.127,-0.127 0.30692,-0.127 h 4.30742 q 0.16933,0 0.28575,0.127 0.11641,0.11641 0.11641,0.28575 0,0.0741 -0.0635,0.22225 l -3.46075,7.40833 q -0.0529,0.10583 -0.15875,0.16933 -0.0952,0.0635 -0.21166,0.0635 -0.16934,0 -0.29634,-0.11641 -0.11641,-0.127 -0.11641,-0.29634 0,-0.0952 0.0847,-0.26458 l 3.15384,-6.77333 z"
           style="font-style:normal;font-variant:normal;font-weight:normal;font-stretch:normal;font-family:Comfortaa;-inkscape-font-specification:Comfortaa;stroke-width:0.26458332"
           id="path3325" />
        <path
           d="m -152.66336,145.95477 q -0.6985,0 -1.05833,0.46567 -0.34925,0.46567 -0.34925,1.23825 v 0.24342 h 1.27 q 0.16933,0 0.26458,0.10583 0.10584,0.0953 0.10584,0.254 0,0.14817 -0.10584,0.254 -0.0952,0.0952 -0.26458,0.0952 h -1.27 v 4.45558 q 0,0.1905 -0.11642,0.30692 -0.10583,0.10583 -0.30691,0.10583 -0.16934,0 -0.28575,-0.10583 -0.10584,-0.11642 -0.10584,-0.30692 v -4.45558 h -0.67733 q -0.16933,0 -0.27517,-0.0952 -0.0952,-0.10583 -0.0952,-0.254 0,-0.15875 0.0952,-0.254 0.10584,-0.10583 0.27517,-0.10583 h 0.67733 v -0.20109 q 0,-1.13241 0.58209,-1.80975 0.58208,-0.67733 1.64041,-0.67733 0.17992,0 0.29634,0.10583 0.11641,0.10584 0.11641,0.26459 0,0.15875 -0.11641,0.26458 -0.11642,0.10583 -0.29634,0.10583 z m 3.8735,0 q -0.6985,0 -1.05833,0.46567 -0.34925,0.46567 -0.34925,1.23825 v 0.24342 h 1.27 q 0.16933,0 0.26458,0.10583 0.10584,0.0953 0.10584,0.254 0,0.14817 -0.10584,0.254 -0.0952,0.0952 -0.26458,0.0952 h -1.27 v 4.45558 q 0,0.1905 -0.11642,0.30692 -0.10583,0.10583 -0.30691,0.10583 -0.16934,0 -0.28575,-0.10583 -0.10584,-0.11642 -0.10584,-0.30692 v -4.45558 h -0.67733 q -0.16933,0 -0.27517,-0.0952 -0.0953,-0.10583 -0.0953,-0.254 0,-0.15875 0.0953,-0.254 0.10584,-0.10583 0.27517,-0.10583 h 0.67733 v -0.20109 q 0,-1.13241 0.58209,-1.80975 0.58208,-0.67733 1.64041,-0.67733 0.17992,0 0.29634,0.10583 0.11641,0.10584 0.11641,0.26459 0,0.15875 -0.11641,0.26458 -0.11642,0.10583 -0.29634,0.10583 z"
           style="font-style:normal;font-variant:normal;font-weight:normal;font-stretch:normal;font-family:Comfortaa;-inkscape-font-specification:Comfortaa;stroke-width:0.26458332"
           id="path3327" />
      </g>
    </g>
  </g>
</svg>
